# xmcd
#
# Track frame offsets: 
#        182
#        17475
#        34762
#        71367
#        107187
#
# Disc length: 1639 seconds
#
# Revision: 9
# Processed by: cddbd v1.5.2PL0 Copyright (c) Steve Scherf et al.
# Submitted via: ExactAudioCopy v1.1
#
DISCID=36066505
DTITLE=Tori Amos - Professional Widow (It's Got To Be Big) (Single)
DYEAR=1996
DGENRE=Electronic
TTITLE0=Professional Widow (Armand's Star Trunk Funkin' Mix - Radio Ed
TTITLE0=it)
TTITLE1=Professional Widow (Mr Roy's 7" Edit)
TTITLE2=Professional Widow (Armand's Star Trunk Funkin' Mix)
TTITLE3=Professional Widow (Mr Roy's Cosmic Cottage Mix)
TTITLE4=Professional Widow (Just Da Funk Dub)
EXTD=
EXTT0=
EXTT1=
EXTT2=
EXTT3=
EXTT4=
PLAYORDER=
